<?xml version="1.0" encoding="UTF-8" standalone="no"?><!DOCTYPE svg PUBLIC "-//W3C//DTD SVG 1.1//EN" "http://www.w3.org/Graphics/SVG/1.1/DTD/svg11.dtd"><svg width="768" height="603" viewBox="0 0 768 603" version="1.1" xmlns="http://www.w3.org/2000/svg" xmlns:xlink="http://www.w3.org/1999/xlink" xml:space="preserve" style="fill-rule:evenodd;clip-rule:evenodd;stroke-linejoin:round;stroke-miterlimit:1.41421;"><g><path d="M0,489.434l10.168,0l0,45.828l24.063,0l0,8.775l-34.231,0l0,-54.603Z" style="fill:#7e8083;fill-rule:nonzero;"/><path d="M44.399,489.434l37.62,0l0,8.45l-27.452,0l0,13.976l26.097,0l0,8.126l-26.097,0l0,15.276l29.147,0l0,8.775l-39.315,0l0,-54.603Z" style="fill:#7e8083;fill-rule:nonzero;"/><path d="M96.932,489.434l37.959,0l0,8.45l-27.452,0l0,13.976l26.097,0l0,8.126l-26.097,0l0,15.276l29.147,0l0,8.775l-39.654,0l0,-54.603Z" style="fill:#7e8083;fill-rule:nonzero;"/><path d="M212.505,531.036l13.218,13.001l-12.879,0l-6.44,-6.175c-2.033,1.95 -4.067,3.9 -6.778,5.2c-2.712,1.3 -6.101,1.95 -10.168,1.95c-2.372,0 -5.084,-0.325 -7.117,-0.975c-2.373,-0.65 -4.406,-1.625 -6.101,-2.925c-1.695,-1.3 -3.05,-2.925 -4.067,-4.875c-1.017,-1.95 -1.695,-4.226 -1.695,-6.826c0,-1.95 0.339,-3.9 1.017,-5.525c0.678,-1.625 1.695,-2.925 2.712,-4.225c1.016,-1.3 2.372,-2.275 4.067,-3.25c1.355,-0.976 3.05,-1.626 4.745,-2.276c-2.034,-1.95 -3.39,-3.9 -4.406,-5.85c-1.017,-1.95 -1.695,-4.225 -1.695,-6.5c0,-2.276 0.339,-4.226 1.356,-6.176c1.016,-1.625 2.033,-3.25 3.728,-4.225c1.694,-0.975 3.389,-1.95 5.084,-2.275c2.033,-0.65 3.728,-0.65 5.761,-0.65c2.034,0 4.067,0.325 5.762,0.65c2.034,0.65 3.728,1.3 5.084,2.6c1.356,0.975 2.711,2.6 3.389,4.225c1.017,1.625 1.356,3.575 1.356,5.851c0,1.625 -0.339,3.25 -1.017,4.875c-0.678,1.625 -1.356,2.925 -2.372,3.9c-1.017,1.3 -2.373,2.275 -3.729,3.25c-1.355,0.975 -3.05,1.625 -4.406,2.601l9.49,9.425l6.44,-10.076l11.184,0l-11.523,15.276Zm-24.064,-11.375c-1.016,0.325 -2.033,0.65 -3.05,1.3c-1.017,0.65 -1.695,0.975 -2.372,1.95c-0.678,0.65 -1.356,1.625 -1.695,2.6c-0.339,0.975 -0.678,2.275 -0.678,3.575c0,1.3 0.339,2.6 0.678,3.576c0.678,0.975 1.356,1.95 2.372,2.6c1.017,0.65 2.034,1.3 3.051,1.625c1.016,0.325 2.372,0.65 3.389,0.65c2.372,0 4.406,-0.65 6.101,-1.625c1.694,-0.975 3.05,-2.275 4.744,-4.226l-12.54,-12.025Zm4.745,-24.052c-2.033,0 -3.389,0.65 -4.745,1.625c-1.355,0.975 -2.033,2.601 -2.033,4.551c0,1.625 0.339,2.925 1.355,4.55c1.017,1.3 2.034,2.925 3.729,4.225c1.016,-0.325 2.033,-0.975 3.05,-1.625c1.017,-0.65 1.695,-1.3 2.711,-1.95c0.678,-0.65 1.356,-1.625 1.695,-2.275c0.339,-0.975 0.678,-1.95 0.678,-2.925c0,-1.625 -0.678,-2.926 -1.695,-4.226c-1.356,-1.3 -3.05,-1.95 -4.745,-1.95Z" style="fill:#961a31;fill-rule:nonzero;"/><path d="M275.883,489.434l8.812,0l24.403,54.603l-11.523,0l-5.423,-12.351l-24.742,0l-5.083,12.351l-11.185,0l24.741,-54.603Zm12.88,33.802l-8.812,-22.101l-8.812,22.101l17.624,0Z" style="fill:#7e8083;fill-rule:nonzero;"/><path d="M347.057,500.81c-1.016,-1.301 -2.711,-2.601 -4.406,-3.251c-2.033,-0.975 -4.067,-1.3 -5.761,-1.3c-1.017,0 -2.373,0 -3.39,0.325c-1.016,0.325 -2.372,0.65 -3.05,1.3c-1.017,0.65 -1.694,1.3 -2.372,2.276c-0.678,0.975 -1.017,1.95 -1.017,3.575c0,1.3 0.339,2.275 0.678,3.25c0.678,0.975 1.355,1.625 2.372,2.275c1.017,0.65 2.034,1.3 3.389,1.625c1.356,0.325 2.712,0.975 4.406,1.3c1.695,0.65 3.729,1.3 5.762,1.95c2.034,0.65 3.728,1.625 5.423,2.926c1.695,1.3 3.05,2.6 4.067,4.55c1.017,1.95 1.695,3.9 1.695,6.825c0,2.925 -0.678,5.526 -1.695,7.801c-1.017,2.275 -2.711,3.9 -4.406,5.525c-2.034,1.3 -4.067,2.6 -6.44,3.25c-2.372,0.65 -5.083,0.975 -7.795,0.975c-3.728,0 -7.456,-0.65 -10.845,-1.95c-3.39,-1.3 -6.44,-3.25 -8.812,-5.85l7.117,-6.501c1.356,1.951 3.389,3.251 5.423,4.551c2.372,0.975 4.745,1.625 6.778,1.625c1.017,0 2.373,0 3.728,-0.325c1.356,-0.325 2.373,-0.65 3.39,-1.3c1.016,-0.65 1.694,-1.625 2.372,-2.6c0.678,-0.975 1.017,-2.276 1.017,-3.901c0,-1.3 -0.339,-2.6 -1.017,-3.575c-0.678,-0.975 -1.694,-1.625 -2.711,-2.6c-1.017,-0.65 -2.712,-1.3 -4.067,-1.95c-1.695,-0.65 -3.39,-0.975 -5.084,-1.625c-1.695,-0.65 -3.389,-0.975 -5.084,-1.95c-1.695,-0.65 -3.389,-1.625 -4.745,-2.926c-1.356,-1.3 -2.372,-2.6 -3.389,-4.225c-1.017,-1.625 -1.356,-3.9 -1.356,-6.5c0,-2.925 0.678,-5.201 1.695,-7.151c1.017,-1.95 2.711,-3.575 4.745,-4.875c2.033,-1.3 4.067,-2.275 6.778,-2.925c2.373,-0.65 5.084,-0.975 7.456,-0.975c3.051,0 5.762,0.65 8.812,1.625c3.051,0.975 5.423,2.6 7.796,4.55l-7.457,6.176Z" style="fill:#7e8083;fill-rule:nonzero;"/><path d="M396.54,500.81c-1.017,-1.301 -2.711,-2.601 -4.406,-3.251c-2.033,-0.975 -4.067,-1.3 -5.762,-1.3c-1.016,0 -2.372,0 -3.389,0.325c-1.017,0.325 -2.372,0.65 -3.05,1.3c-1.017,0.65 -1.695,1.3 -2.373,2.276c-0.677,0.975 -1.016,1.95 -1.016,3.575c0,1.3 0.339,2.275 0.678,3.25c0.677,0.975 1.355,1.625 2.372,2.275c1.017,0.65 2.034,1.3 3.389,1.625c1.356,0.325 2.712,0.975 4.406,1.3c1.695,0.65 3.728,1.3 5.762,1.95c2.033,0.65 3.728,1.625 5.423,2.926c1.694,1.3 3.05,2.6 4.067,4.55c1.017,1.95 1.694,3.9 1.694,6.825c0,2.925 -0.677,5.526 -1.694,7.801c-1.017,2.275 -2.712,3.9 -4.406,5.525c-2.034,1.3 -4.067,2.6 -6.44,3.25c-2.372,0.65 -5.084,0.975 -7.795,0.975c-3.728,0 -7.456,-0.65 -10.846,-1.95c-3.389,-1.3 -6.439,-3.25 -8.812,-5.85l7.118,-6.501c1.356,1.951 3.389,3.251 5.423,4.551c2.372,0.975 4.745,1.625 6.778,1.625c1.017,0 2.373,0 3.728,-0.325c1.356,-0.325 2.373,-0.65 3.389,-1.3c1.017,-0.65 1.695,-1.625 2.373,-2.6c0.678,-0.975 1.017,-2.276 1.017,-3.901c0,-1.3 -0.339,-2.6 -1.017,-3.575c-0.678,-0.975 -1.695,-1.625 -2.711,-2.6c-1.017,-0.65 -2.712,-1.3 -4.068,-1.95c-1.694,-0.65 -3.389,-0.975 -5.083,-1.625c-1.695,-0.65 -3.39,-0.975 -5.084,-1.95c-1.695,-0.65 -3.389,-1.625 -4.745,-2.926c-1.356,-1.3 -2.373,-2.6 -3.389,-4.225c-1.017,-1.625 -1.356,-3.9 -1.356,-6.5c0,-2.925 0.678,-5.201 1.695,-7.151c1.016,-1.95 2.711,-3.575 4.744,-4.875c2.034,-1.3 4.068,-2.275 6.779,-2.925c2.372,-0.65 5.084,-0.975 7.456,-0.975c3.051,0 5.762,0.65 8.812,1.625c3.051,0.975 5.423,2.6 7.795,4.55l-7.456,6.176Z" style="fill:#7e8083;fill-rule:nonzero;"/><path d="M414.503,516.736c0,-4.226 0.678,-8.451 2.373,-11.701c1.694,-3.575 3.728,-6.501 6.439,-9.101c2.711,-2.6 5.762,-4.225 9.49,-5.85c3.728,-1.3 7.795,-1.95 12.201,-1.95c4.406,0 8.473,0.65 12.201,1.95c3.729,1.3 7.118,3.25 9.829,5.85c2.712,2.6 4.745,5.526 6.44,9.101c1.694,3.575 2.372,7.475 2.372,11.701c0,4.225 -0.678,8.125 -2.372,11.7c-1.695,3.575 -3.728,6.501 -6.44,9.101c-2.711,2.6 -6.1,4.55 -9.829,5.85c-3.728,1.3 -7.795,2.275 -12.201,2.275c-4.406,0 -8.473,-0.65 -12.201,-2.275c-3.728,-1.3 -6.779,-3.25 -9.49,-5.85c-2.711,-2.6 -4.745,-5.526 -6.439,-9.101c-1.695,-3.575 -2.373,-7.475 -2.373,-11.7Zm10.846,0c0,2.925 0.339,5.525 1.355,8.125c1.017,2.6 2.373,4.55 4.067,6.5c1.695,1.951 3.729,3.251 6.101,4.226c2.372,0.975 5.084,1.625 7.795,1.625c3.051,0 5.423,-0.65 7.795,-1.625c2.373,-0.975 4.406,-2.275 6.101,-4.226c1.695,-1.95 3.05,-3.9 4.067,-6.5c1.017,-2.6 1.356,-5.2 1.356,-8.125c0,-2.926 -0.339,-5.526 -1.356,-7.801c-1.017,-2.275 -2.372,-4.55 -4.067,-6.175c-1.695,-1.95 -3.728,-3.251 -6.101,-4.226c-2.372,-0.975 -5.083,-1.625 -8.134,-1.625c-3.05,0 -5.761,0.65 -8.134,1.625c-2.372,0.975 -4.406,2.601 -6.1,4.226c-1.695,1.95 -3.051,3.9 -4.068,6.175c0,2.275 -0.677,4.875 -0.677,7.801Z" style="fill:#7e8083;fill-rule:nonzero;"/><path d="M530.076,502.435c-1.356,-1.95 -3.389,-3.251 -5.762,-4.226c-2.372,-0.975 -4.745,-1.3 -7.117,-1.3c-3.05,0 -5.762,0.65 -8.134,1.625c-2.373,0.975 -4.406,2.601 -6.101,4.226c-1.695,1.95 -3.05,3.9 -4.067,6.175c-1.017,2.275 -1.356,5.2 -1.356,7.801c0,2.925 0.339,5.85 1.356,8.125c1.017,2.6 2.372,4.55 4.067,6.5c1.695,1.626 3.728,3.251 6.101,4.226c2.372,0.975 5.084,1.625 7.795,1.625c3.05,0 5.762,-0.65 8.134,-1.625c2.373,-1.3 4.406,-2.6 5.762,-4.551l8.134,5.526c-2.373,2.925 -5.762,5.525 -9.151,7.15c-3.728,1.625 -7.795,2.6 -12.879,2.6c-4.406,0 -8.473,-0.65 -12.201,-2.275c-3.728,-1.3 -6.779,-3.25 -9.49,-5.85c-2.712,-2.6 -4.745,-5.525 -6.44,-9.101c-1.355,-3.575 -2.372,-7.475 -2.372,-11.7c0,-4.226 0.678,-8.451 2.372,-11.701c1.695,-3.575 3.728,-6.501 6.44,-9.101c2.711,-2.6 6.1,-4.225 9.829,-5.85c3.728,-1.3 7.795,-1.95 12.201,-1.95c1.694,0 3.728,0.325 5.762,0.65c2.033,0.325 3.728,0.975 5.761,1.625c1.695,0.65 3.389,1.625 5.084,2.6c1.695,0.975 3.05,2.275 4.067,3.575l-7.795,5.201Z" style="fill:#7e8083;fill-rule:nonzero;"/><rect x="548.039" y="489.434" width="10.168" height="54.603" style="fill:#7e8083;fill-rule:nonzero;"/><path d="M592.099,489.434l8.812,0l24.402,54.603l-11.523,0l-5.423,-12.351l-24.741,0l-5.084,12.351l-11.185,0l24.742,-54.603Zm12.879,33.802l-8.812,-22.101l-8.812,22.101l17.624,0Z" style="fill:#7e8083;fill-rule:nonzero;"/><path d="M641.243,497.884l-17.285,0l0,-8.45l45.076,0l0,8.45l-17.285,0l0,46.153l-10.167,0l0,-46.153l-0.339,0Z" style="fill:#7e8083;fill-rule:nonzero;"/><path d="M678.524,489.434l37.621,0l0,8.45l-27.453,0l0,13.976l26.097,0l0,8.126l-26.097,0l0,15.276l29.147,0l0,8.775l-39.315,0l0,-54.603Z" style="fill:#7e8083;fill-rule:nonzero;"/><path d="M760.205,500.81c-1.017,-1.301 -2.712,-2.601 -4.406,-3.251c-2.034,-0.975 -4.067,-1.3 -5.762,-1.3c-1.017,0 -2.372,0 -3.389,0.325c-1.017,0.325 -2.373,0.65 -3.05,1.3c-1.017,0.65 -1.695,1.3 -2.373,2.276c-0.678,0.975 -1.017,1.95 -1.017,3.575c0,1.3 0.339,2.275 0.678,3.25c0.678,0.975 1.356,1.625 2.373,2.275c1.016,0.65 2.033,1.3 3.389,1.625c1.356,0.325 2.711,0.975 4.406,1.3c1.694,0.65 3.728,1.3 5.762,1.95c2.033,0.65 3.728,1.625 5.422,2.926c1.695,1.3 3.051,2.6 4.067,4.55c1.017,1.95 1.695,3.9 1.695,6.825c0,2.925 -0.678,5.526 -1.695,7.801c-1.016,2.275 -2.711,3.9 -4.406,5.525c-2.033,1.3 -4.067,2.6 -6.439,3.25c-2.373,0.65 -5.084,0.975 -7.795,0.975c-3.729,0 -7.457,-0.65 -10.846,-1.95c-3.389,-1.3 -6.439,-3.25 -8.812,-5.85l7.117,-6.501c1.356,1.951 3.39,3.251 5.423,4.551c2.373,0.975 4.745,1.625 6.779,1.625c1.016,0 2.372,0 3.728,-0.325c1.356,-0.325 2.372,-0.65 3.389,-1.3c1.017,-0.65 1.695,-1.625 2.373,-2.6c0.677,-0.975 1.016,-2.276 1.016,-3.901c0,-1.3 -0.339,-2.6 -1.016,-3.575c-0.678,-0.975 -1.695,-1.625 -2.712,-2.6c-1.017,-0.65 -2.711,-1.3 -4.067,-1.95c-1.695,-0.65 -3.389,-0.975 -5.084,-1.625c-1.694,-0.65 -3.389,-0.975 -5.084,-1.95c-1.694,-0.65 -3.389,-1.625 -4.745,-2.926c-1.355,-1.3 -2.372,-2.6 -3.389,-4.225c-1.017,-1.625 -1.355,-3.9 -1.355,-6.5c0,-2.925 0.677,-5.201 1.694,-7.151c1.356,-1.95 2.712,-3.575 4.745,-4.875c2.034,-1.3 4.067,-2.275 6.779,-2.925c2.372,-0.65 5.083,-0.975 7.456,-0.975c3.05,0 5.762,0.65 8.812,1.625c3.05,0.975 5.423,2.6 7.795,4.55l-7.456,6.176Z" style="fill:#7e8083;fill-rule:nonzero;"/></g><g><path d="M24.894,597.59c-0.337,0.645 -1.01,1.29 -1.682,1.935c-0.673,0.645 -1.346,0.968 -2.355,1.613c-1.009,0.323 -1.682,0.968 -3.028,0.968c-1.009,0.323 -2.355,0.323 -3.364,0.323c-2.018,0 -4.037,-0.323 -5.719,-0.968c-1.682,-0.645 -3.364,-1.613 -4.709,-2.904c-1.346,-1.29 -2.355,-2.58 -3.028,-4.516c-0.673,-1.613 -1.009,-3.549 -1.009,-5.484c0,-1.936 0.336,-3.871 1.009,-5.484c0.673,-1.613 1.682,-3.226 3.028,-4.517c1.345,-1.29 2.691,-2.258 4.709,-2.903c1.682,-0.645 3.701,-0.968 5.719,-0.968c1.009,0 2.019,0 3.028,0.323c1.009,0.322 2.018,0.645 2.691,0.967c1.009,0.323 1.682,0.646 2.355,1.291c0.673,0.645 1.345,0.968 1.682,1.613l-2.355,1.613c-0.336,-0.323 -0.673,-0.968 -1.009,-1.291c-0.337,-0.322 -1.009,-0.645 -1.682,-0.967c-0.673,-0.323 -1.346,-0.646 -2.019,-0.646c-0.672,-0.322 -1.682,-0.322 -2.354,-0.322c-1.682,0 -3.364,0.322 -4.71,0.968c-1.346,0.645 -2.691,1.613 -3.7,2.58c-1.01,0.968 -1.682,2.259 -2.355,3.549c-0.673,1.29 -0.673,2.903 -0.673,4.516c0,1.613 0.336,2.904 0.673,4.517c0.673,1.29 1.345,2.581 2.355,3.548c1.009,0.968 2.018,1.936 3.7,2.581c1.346,0.645 3.028,0.968 4.71,0.968c1.682,0 3.027,-0.323 4.373,-0.968c1.345,-0.645 2.691,-1.613 3.7,-2.903l2.019,0.968Z" style="fill:#7e8083;fill-rule:nonzero;"/><path d="M59.206,588.557c0,1.935 -0.336,3.871 -1.009,5.484c-0.673,1.613 -1.682,3.226 -3.027,4.516c-1.346,1.291 -2.692,2.259 -4.71,2.904c-1.682,0.645 -3.7,0.968 -5.719,0.968c-2.018,0 -4.037,-0.323 -5.719,-0.968c-1.682,-0.645 -3.364,-1.613 -4.709,-2.904c-1.346,-1.29 -2.355,-2.58 -3.028,-4.516c-0.673,-1.613 -1.009,-3.549 -1.009,-5.484c0,-1.936 0.336,-3.871 1.009,-5.484c0.673,-1.613 1.682,-3.226 3.028,-4.517c1.345,-1.29 2.691,-2.258 4.709,-2.903c1.682,-0.645 3.701,-0.968 5.719,-0.968c2.019,0 4.037,0.323 5.719,0.968c1.682,0.645 3.364,1.613 4.71,2.903c1.345,1.291 2.354,2.581 3.027,4.517c0.673,1.613 1.009,3.548 1.009,5.484Zm-2.691,0c0,-1.613 -0.336,-2.904 -0.673,-4.517c-0.672,-1.29 -1.345,-2.58 -2.354,-3.548c-1.01,-0.968 -2.019,-1.936 -3.701,-2.581c-1.345,-0.645 -3.027,-0.968 -4.709,-0.968c-1.682,0 -3.364,0.323 -4.71,0.968c-1.346,0.645 -2.691,1.613 -3.7,2.581c-1.01,0.968 -1.682,2.258 -2.355,3.548c-0.673,1.291 -0.673,2.904 -0.673,4.517c0,1.613 0.336,2.903 0.673,4.516c0.673,1.291 1.345,2.581 2.355,3.549c1.009,0.968 2.018,1.935 3.7,2.581c1.346,0.645 3.028,0.967 4.71,0.967c1.682,0 3.364,-0.322 4.709,-0.967c1.346,-0.646 2.691,-1.291 3.701,-2.581c1.009,-0.968 1.682,-2.258 2.354,-3.549c0.337,-1.29 0.673,-2.903 0.673,-4.516Z" style="fill:#7e8083;fill-rule:nonzero;"/><path d="M81.409,597.267l9.082,-21.937l4.374,0l0,26.453l-2.692,0l0,-22.904l-10.092,22.904l-1.345,0l-10.092,-22.904l0,22.904l-2.691,0l0,-26.453l4.373,0l9.083,21.937Z" style="fill:#7e8083;fill-rule:nonzero;"/><path d="M118.749,597.267l9.083,-21.937l4.373,0l0,26.453l-2.691,0l0,-22.904l-10.092,22.904l-1.346,0l-10.092,-22.904l0,22.904l-2.691,0l0,-26.453l4.373,0l9.083,21.937Z" style="fill:#7e8083;fill-rule:nonzero;"/><path d="M144.988,599.525l14.802,0l0,2.258l-17.493,0l0,-26.453l17.156,0l0,2.258l-14.465,0l0,9.033l13.456,0l0,2.258l-13.456,0l0,10.646Z" style="fill:#7e8083;fill-rule:nonzero;"/><path d="M170.555,601.783l-2.692,0l0,-26.453l8.074,0c1.346,0 2.691,0 3.7,0.323c1.01,0.322 2.019,0.645 3.028,1.29c0.673,0.645 1.346,1.291 2.018,2.258c0.673,0.968 0.673,1.936 0.673,3.226c0,0.968 -0.336,1.936 -0.673,2.581c-0.336,0.645 -1.009,1.613 -1.345,1.936c-0.337,0.322 -1.346,0.968 -2.355,1.29c-1.009,0.323 -1.682,0.645 -2.691,0.645l8.073,12.582l-3.364,0l-7.737,-12.259l-4.709,0l0,12.581Zm0,-14.517l4.709,0c2.355,0 4.037,-0.322 5.046,-1.29c1.346,-0.645 1.682,-1.936 1.682,-3.549c0,-0.967 -0.336,-1.613 -0.673,-2.258c-0.336,-0.645 -0.672,-0.968 -1.345,-1.613c-0.673,-0.322 -1.346,-0.645 -2.019,-0.968c-1.009,-0.322 -1.682,-0.322 -2.691,-0.322l-5.046,0l0,10l0.337,0Z" style="fill:#7e8083;fill-rule:nonzero;"/><path d="M216.978,597.59c-0.337,0.645 -1.01,1.29 -1.682,1.935c-0.673,0.645 -1.346,0.968 -2.355,1.613c-1.009,0.323 -1.682,0.968 -3.028,0.968c-1.009,0.323 -2.355,0.323 -3.364,0.323c-2.018,0 -4.037,-0.323 -5.719,-0.968c-1.682,-0.645 -3.364,-1.613 -4.709,-2.904c-1.346,-1.29 -2.355,-2.58 -3.028,-4.516c-0.673,-1.613 -1.009,-3.549 -1.009,-5.484c0,-1.936 0.336,-3.871 1.009,-5.484c0.673,-1.613 1.682,-3.226 3.028,-4.517c1.345,-1.29 2.691,-2.258 4.709,-2.903c1.682,-0.645 3.701,-0.968 5.719,-0.968c1.009,0 2.019,0 3.028,0.323c1.009,0.322 2.018,0.645 2.691,0.967c1.009,0.323 1.682,0.646 2.355,1.291c0.673,0.645 1.345,0.968 1.682,1.613l-2.355,1.613c-0.336,-0.323 -0.673,-0.968 -1.009,-1.291c-0.337,-0.322 -1.009,-0.645 -1.682,-0.967c-0.673,-0.323 -1.346,-0.646 -2.019,-0.646c-0.672,-0.322 -1.682,-0.322 -2.354,-0.322c-1.682,0 -3.364,0.322 -4.71,0.968c-1.346,0.645 -2.691,1.613 -3.7,2.58c-1.01,0.968 -1.682,2.259 -2.355,3.549c-0.673,1.29 -0.673,2.903 -0.673,4.516c0,1.613 0.336,2.904 0.673,4.517c0.673,1.29 1.345,2.581 2.355,3.548c1.009,0.968 2.018,1.936 3.7,2.581c1.346,0.645 3.028,0.968 4.71,0.968c1.682,0 3.027,-0.323 4.373,-0.968c1.345,-0.645 2.691,-1.613 3.7,-2.903l2.019,0.968Z" style="fill:#7e8083;fill-rule:nonzero;"/><rect x="224.715" y="575.33" width="2.691" height="26.453" style="fill:#7e8083;fill-rule:nonzero;"/><path d="M237.162,601.783l-3.028,0l11.774,-26.453l2.691,0l11.774,26.453l-3.027,0l-3.028,-6.774l-14.129,0l-3.027,6.774Zm4.036,-9.355l12.111,0l-6.055,-13.872l-6.056,13.872Z" style="fill:#7e8083;fill-rule:nonzero;"/><path d="M270.129,599.525l12.783,0l0,2.258l-15.474,0l0,-26.453l2.691,0l0,24.195Z" style="fill:#7e8083;fill-rule:nonzero;"/><path d="M304.105,601.783l-2.691,0l0,-26.453l8.074,0c1.345,0 2.691,0 3.7,0.323c1.009,0.322 2.018,0.645 3.028,1.29c0.672,0.645 1.345,1.291 2.018,2.258c0.673,0.968 0.673,1.936 0.673,3.226c0,0.968 -0.337,1.936 -0.673,2.581c-0.336,0.645 -1.009,1.613 -1.346,1.936c-0.672,0.645 -1.345,0.968 -2.354,1.29c-1.01,0.323 -1.682,0.645 -2.692,0.645l8.074,12.582l-3.364,0l-7.737,-12.259l-4.71,0l0,12.581Zm0,-14.517l4.71,0c2.355,0 4.037,-0.322 5.046,-1.29c1.009,-0.968 1.682,-1.936 1.682,-3.549c0,-0.967 -0.337,-1.613 -0.673,-2.258c-0.336,-0.645 -0.673,-0.968 -1.346,-1.613c-0.672,-0.322 -1.345,-0.645 -2.018,-0.968c-1.009,-0.322 -1.682,-0.322 -2.691,-0.322l-5.046,0l0,10l0.336,0Z" style="fill:#7e8083;fill-rule:nonzero;"/><path d="M330.344,599.525l14.802,0l0,2.258l-17.493,0l0,-26.453l17.156,0l0,2.258l-14.128,0l0,9.033l13.456,0l0,2.258l-13.456,0l0,10.646l-0.337,0Z" style="fill:#7e8083;fill-rule:nonzero;"/><path d="M352.883,601.783l-3.028,0l11.774,-26.453l2.692,0l11.774,26.453l-3.028,0l-3.028,-6.774l-14.128,0l-3.028,6.774Zm4.037,-9.355l12.11,0l-6.055,-13.872l-6.055,13.872Z" style="fill:#7e8083;fill-rule:nonzero;"/><path d="M385.85,599.525l12.783,0l0,2.258l-15.474,0l0,-26.453l2.691,0l0,24.195Z" style="fill:#7e8083;fill-rule:nonzero;"/><path d="M419.827,599.525l14.801,0l0,2.258l-17.493,0l0,-26.453l17.157,0l0,2.258l-14.129,0l0,9.033l13.456,0l0,2.258l-13.456,0l0,10.646l-0.336,0Z" style="fill:#7e8083;fill-rule:nonzero;"/><path d="M456.158,579.847c-0.673,-0.646 -1.346,-1.291 -2.355,-1.936c-1.009,-0.645 -2.019,-0.645 -3.364,-0.645c-0.673,0 -1.346,0 -2.019,0.322c-0.672,0.323 -1.345,0.646 -2.018,0.968c-0.673,0.323 -1.009,0.968 -1.345,1.613c-0.337,0.645 -0.673,1.291 -0.673,2.258c0,0.968 0,1.613 0.336,1.936c0.337,0.645 0.673,0.968 1.346,1.29c0.673,0.323 1.345,0.646 2.018,0.968c0.673,0.323 1.346,0.645 2.355,0.645c1.009,0.323 2.018,0.646 3.027,0.968c1.01,0.323 1.682,0.645 2.692,1.291c1.009,0.645 1.345,1.29 2.018,2.258c0.336,0.968 0.673,1.935 0.673,3.226c0,1.29 -0.337,2.581 -0.673,3.548c-0.673,0.968 -1.346,1.613 -2.018,2.259c-0.673,0.645 -1.682,0.967 -3.028,1.29c-1.009,0.323 -2.018,0.323 -3.364,0.323c-0.673,0 -1.682,0 -2.355,-0.323c-0.672,-0.323 -1.682,-0.323 -2.354,-0.645c-0.673,-0.323 -1.346,-0.645 -2.019,-1.291c-0.673,-0.645 -1.345,-0.967 -1.682,-1.613l2.355,-1.613c0.673,0.968 1.346,1.613 2.355,2.259c1.009,0.645 2.354,0.967 3.7,0.967c0.673,0 1.346,0 2.018,-0.322c0.673,-0.323 1.346,-0.645 2.019,-0.968c0.673,-0.323 1.009,-0.968 1.345,-1.613c0.337,-0.645 0.673,-1.29 0.673,-2.258c0,-0.968 -0.336,-1.613 -0.673,-2.258c-0.336,-0.646 -1.009,-0.968 -1.345,-1.613c-0.673,-0.323 -1.346,-0.646 -2.019,-0.968c-0.672,-0.323 -1.682,-0.645 -2.691,-0.968c-1.009,-0.323 -1.682,-0.645 -2.691,-0.968c-1.009,-0.322 -1.682,-0.645 -2.355,-1.29c-0.672,-0.645 -1.345,-1.291 -1.682,-1.936c-0.336,-0.968 -0.672,-1.935 -0.672,-2.903c0,-1.291 0.336,-2.258 0.672,-3.226c0.673,-0.968 1.346,-1.613 2.019,-2.258c1.009,-0.646 1.682,-0.968 2.691,-1.291c1.009,-0.322 2.018,-0.322 3.027,-0.322c2.019,0 3.364,0.322 4.71,0.967c1.346,0.646 2.355,1.291 3.028,2.259l-1.682,1.613Z" style="fill:#7e8083;fill-rule:nonzero;"/><path d="M475.669,601.783l-2.691,0l0,-23.872l-9.083,0l0,-2.258l21.193,0l0,2.258l-9.083,0l0,23.872l-0.336,0Z" style="fill:#7e8083;fill-rule:nonzero;"/><path d="M489.125,601.783l-3.028,0l11.774,-26.453l2.691,0l11.774,26.453l-3.027,0l-3.028,-6.774l-14.129,0l-3.027,6.774Zm4.037,-9.355l12.11,0l-6.055,-13.872l-6.055,13.872Z" style="fill:#7e8083;fill-rule:nonzero;"/><path d="M525.792,601.783l-2.691,0l0,-23.872l-9.083,0l0,-2.258l21.194,0l0,2.258l-9.083,0l0,23.872l-0.337,0Z" style="fill:#7e8083;fill-rule:nonzero;"/><path d="M544.631,599.525l14.801,0l0,2.258l-17.492,0l0,-26.453l17.156,0l0,2.258l-14.129,0l0,9.033l13.456,0l0,2.258l-13.456,0l0,10.646l-0.336,0Z" style="fill:#7e8083;fill-rule:nonzero;"/><path d="M593.072,579.847c-0.673,-0.646 -1.345,-1.291 -2.355,-1.936c-1.009,-0.645 -2.018,-0.645 -3.364,-0.645c-0.672,0 -1.345,0 -2.018,0.322c-0.673,0.323 -1.346,0.646 -2.018,0.968c-0.673,0.323 -1.01,0.968 -1.346,1.613c-0.336,0.645 -0.673,1.291 -0.673,2.258c0,0.968 0,1.613 0.337,1.936c0.336,0.645 0.672,0.968 1.345,1.29c0.673,0.323 1.346,0.646 2.019,0.968c0.672,0.323 1.345,0.645 2.354,0.645c1.01,0.323 2.019,0.646 3.028,0.968c1.009,0.323 1.682,0.645 2.691,1.291c1.009,0.645 1.346,1.29 2.019,2.258c0.336,0.968 0.672,1.935 0.672,3.226c0,1.29 -0.336,2.581 -0.672,3.548c-0.673,0.968 -1.346,1.613 -2.019,2.259c-0.673,0.645 -1.682,0.967 -3.027,1.29c-1.01,0.323 -2.019,0.323 -3.364,0.323c-0.673,0 -1.682,0 -2.355,-0.323c-0.673,-0.323 -1.682,-0.323 -2.355,-0.645c-0.673,-0.323 -1.346,-0.645 -2.018,-1.291c-0.673,-0.645 -1.346,-0.967 -1.682,-1.613l2.354,-1.613c0.673,0.968 1.346,1.613 2.355,2.259c1.009,0.645 2.355,0.967 3.701,0.967c0.672,0 1.345,0 2.018,-0.322c0.673,-0.323 1.346,-0.645 2.018,-0.968c0.673,-0.323 1.01,-0.968 1.346,-1.613c0.336,-0.645 0.673,-1.29 0.673,-2.258c0,-0.968 -0.337,-1.613 -0.673,-2.258c-0.336,-0.646 -1.009,-0.968 -1.346,-1.613c-0.672,-0.323 -1.345,-0.646 -2.018,-0.968c-0.673,-0.323 -1.682,-0.645 -2.691,-0.968c-1.009,-0.323 -1.682,-0.645 -2.691,-0.968c-1.01,-0.322 -1.682,-0.645 -2.355,-1.29c-0.673,-0.645 -1.346,-1.291 -1.682,-1.936c-0.337,-0.968 -0.673,-1.935 -0.673,-2.903c0,-1.291 0.336,-2.258 0.673,-3.226c0.673,-0.968 1.345,-1.613 2.018,-2.258c1.009,-0.646 1.682,-0.968 2.691,-1.291c1.01,-0.322 2.019,-0.322 3.028,-0.322c2.018,0 3.364,0.322 4.71,0.967c1.345,0.646 2.354,1.291 3.027,2.259l-1.682,1.613Z" style="fill:#7e8083;fill-rule:nonzero;"/><path d="M607.201,599.525l14.802,0l0,2.258l-17.493,0l0,-26.453l17.156,0l0,2.258l-14.129,0l0,9.033l13.456,0l0,2.258l-13.456,0l0,10.646l-0.336,0Z" style="fill:#7e8083;fill-rule:nonzero;"/><path d="M633.104,601.783l-2.691,0l0,-26.453l8.073,0c1.346,0 2.691,0 3.701,0.323c1.009,0.322 2.018,0.645 3.027,1.29c0.673,0.645 1.346,1.291 2.019,2.258c0.672,0.968 0.672,1.936 0.672,3.226c0,0.968 -0.336,1.936 -0.672,2.581c-0.337,0.645 -1.01,1.613 -1.346,1.936c-0.673,0.645 -1.346,0.968 -2.355,1.29c-1.009,0.323 -1.682,0.645 -2.691,0.645l8.074,12.582l-3.364,0l-7.738,-12.259l-4.709,0l0,12.581Zm0,-14.517l4.709,0c2.355,0 4.037,-0.322 5.046,-1.29c1.346,-0.645 1.682,-1.936 1.682,-3.549c0,-0.967 -0.336,-1.613 -0.672,-2.258c-0.337,-0.645 -0.673,-0.968 -1.346,-1.613c-0.673,-0.322 -1.346,-0.645 -2.018,-0.968c-1.01,-0.322 -1.682,-0.322 -2.692,-0.322l-5.046,0l0,10l0.337,0Z" style="fill:#7e8083;fill-rule:nonzero;"/><path d="M664.389,598.235l9.083,-22.905l3.027,0l-10.428,26.453l-3.028,0l-10.428,-26.453l3.028,0l8.746,22.905Z" style="fill:#7e8083;fill-rule:nonzero;"/><rect x="682.891" y="575.33" width="2.691" height="26.453" style="fill:#7e8083;fill-rule:nonzero;"/><path d="M718.886,597.59c-0.337,0.645 -1.01,1.29 -1.682,1.935c-0.673,0.645 -1.346,0.968 -2.355,1.613c-1.009,0.323 -1.682,0.968 -3.028,0.968c-1.009,0.323 -2.355,0.323 -3.364,0.323c-2.018,0 -4.037,-0.323 -5.718,-0.968c-1.682,-0.645 -3.364,-1.613 -4.71,-2.904c-1.346,-1.29 -2.355,-2.58 -3.028,-4.516c-0.672,-1.613 -1.009,-3.549 -1.009,-5.484c0,-1.936 0.337,-3.871 1.009,-5.484c0.673,-1.613 1.682,-3.226 3.028,-4.517c1.346,-1.29 2.691,-2.258 4.71,-2.903c1.681,-0.645 3.7,-0.968 5.718,-0.968c1.009,0 2.019,0 3.028,0.323c1.009,0.322 2.018,0.645 2.691,0.967c1.009,0.323 1.682,0.646 2.355,1.291c0.673,0.645 1.345,0.968 1.682,1.613l-2.355,1.613c-0.336,-0.323 -0.673,-0.968 -1.009,-1.291c-0.337,-0.322 -1.009,-0.645 -1.682,-0.967c-0.673,-0.323 -1.346,-0.646 -2.019,-0.646c-0.672,-0.322 -1.682,-0.322 -2.354,-0.322c-1.682,0 -3.364,0.322 -4.71,0.968c-1.345,0.645 -2.691,1.613 -3.7,2.58c-1.009,0.968 -1.682,2.259 -2.355,3.549c-0.673,1.29 -0.673,2.903 -0.673,4.516c0,1.613 0.337,2.904 0.673,4.517c0.673,1.29 1.346,2.581 2.355,3.548c1.009,0.968 2.018,1.936 3.7,2.581c1.346,0.645 3.028,0.968 4.71,0.968c1.682,0 3.027,-0.323 4.373,-0.968c1.345,-0.645 2.691,-1.613 3.7,-2.903l2.019,0.968Z" style="fill:#7e8083;fill-rule:nonzero;"/><path d="M728.978,599.525l14.801,0l0,2.258l-17.493,0l0,-26.453l17.157,0l0,2.258l-14.129,0l0,9.033l13.456,0l0,2.258l-13.456,0l0,10.646l-0.336,0Z" style="fill:#7e8083;fill-rule:nonzero;"/><path d="M765.309,579.847c-0.673,-0.646 -1.346,-1.291 -2.355,-1.936c-1.009,-0.645 -2.018,-0.645 -3.364,-0.645c-0.673,0 -1.346,0 -2.018,0.322c-0.673,0.323 -1.346,0.646 -2.019,0.968c-0.673,0.323 -1.009,0.968 -1.345,1.613c-0.337,0.645 -0.673,1.291 -0.673,2.258c0,0.968 0,1.613 0.336,1.936c0.337,0.645 0.673,0.968 1.346,1.29c0.673,0.323 1.345,0.646 2.018,0.968c0.673,0.323 1.346,0.645 2.355,0.645c1.009,0.323 2.018,0.646 3.028,0.968c1.009,0.323 1.682,0.645 2.691,1.291c1.009,0.645 1.345,1.29 2.018,2.258c0.337,0.968 0.673,1.935 0.673,3.226c0,1.29 -0.336,2.581 -0.673,3.548c-0.673,0.968 -1.345,1.613 -2.018,2.259c-0.673,0.645 -1.682,0.967 -3.028,1.29c-1.009,0.323 -2.018,0.323 -3.364,0.323c-0.673,0 -1.682,0 -2.355,-0.323c-0.672,-0.323 -1.682,-0.323 -2.354,-0.645c-0.673,-0.323 -1.346,-0.645 -2.019,-1.291c-0.673,-0.645 -1.345,-0.967 -1.682,-1.613l2.355,-1.613c0.673,0.968 1.346,1.613 2.355,2.259c1.009,0.645 2.355,0.967 3.7,0.967c0.673,0 1.346,0 2.019,-0.322c0.672,-0.323 1.345,-0.645 2.018,-0.968c0.673,-0.323 1.009,-0.968 1.346,-1.613c0.336,-0.645 0.672,-1.29 0.672,-2.258c0,-0.968 -0.336,-1.613 -0.672,-2.258c-0.337,-0.646 -1.01,-0.968 -1.346,-1.613c-0.673,-0.323 -1.346,-0.646 -2.018,-0.968c-0.673,-0.323 -1.682,-0.645 -2.692,-0.968c-1.009,-0.323 -1.682,-0.645 -2.691,-0.968c-1.009,-0.322 -1.682,-0.645 -2.355,-1.29c-0.672,-0.645 -1.345,-1.291 -1.682,-1.936c-0.336,-0.968 -0.672,-1.935 -0.672,-2.903c0,-1.291 0.336,-2.258 0.672,-3.226c0.673,-0.968 1.346,-1.613 2.019,-2.258c1.009,-0.646 1.682,-0.968 2.691,-1.291c1.009,-0.322 2.018,-0.322 3.028,-0.322c2.018,0 3.364,0.322 4.709,0.967c1.346,0.646 2.355,1.291 3.028,2.259l-1.682,1.613Z" style="fill:#7e8083;fill-rule:nonzero;"/></g><g><path d="M167.02,412.958c7.824,-8.844 26.193,-38.439 48.643,-76.197l-19.729,0c-19.389,0 -34.697,-15.647 -34.697,-34.696l0,-267.368c0,-19.39 -15.647,-34.697 -34.696,-34.697l-91.844,0c-19.39,0 -34.697,15.647 -34.697,34.697l0,374.859c0,19.389 15.647,34.697 34.697,34.697l80.278,0c-0.34,0 24.832,0 52.045,-31.295Z" style="fill:url(#_Linear1);fill-rule:nonzero;"/><path d="M763.666,409.556l-159.537,-303.765c-7.823,-15.308 -19.729,-20.75 -28.573,-21.431c-0.34,0.341 -2.722,0 -6.463,0c-0.681,0 -1.701,0 -2.382,0c-10.545,0 -28.573,2.382 -40.139,16.328c-9.865,12.246 -15.647,20.75 -17.348,23.471c-8.164,12.927 -23.131,35.037 -27.213,42.181c0,0 -1.701,2.721 -4.422,7.823l113.614,235.053c3.402,4.422 11.226,34.697 41.5,34.697l113.955,0c17.688,0.34 27.553,-14.287 17.008,-34.357Z" style="fill:url(#_Linear2);fill-rule:nonzero;"/><path d="M408.196,84.36l15.647,0c0,0 152.053,-0.68 151.713,0c-0.34,1.021 -31.635,-4.762 -48.984,16.328c-9.865,12.246 -15.647,20.75 -17.348,23.471c-8.164,12.927 -23.131,35.037 -27.213,42.181c0,0 -135.725,238.114 -139.807,247.298c-4.082,9.525 -18.709,30.275 -54.426,30.275l-110.553,0l-62.59,0c0,0 25.172,0 52.385,-31.295c23.811,-27.554 148.651,-251.041 190.491,-303.086c0,0.341 19.049,-25.172 50.685,-25.172Z" style="fill:#cd163f;fill-rule:nonzero;"/></g><g><path d="M0,560.693l768,0" style="fill:#7e8083;fill-rule:nonzero;"/><rect x="0" y="560.371" width="768" height="0.644" style="fill:#7e8083;"/></g><defs><linearGradient id="_Linear1" x1="0" y1="0" x2="1" y2="0" gradientUnits="userSpaceOnUse" gradientTransform="matrix(-353.303,-240.737,240.737,-353.303,384.571,429.295)"><stop offset="0" style="stop-color:#4e131e;stop-opacity:1"/><stop offset="0.02" style="stop-color:#4e131e;stop-opacity:1"/><stop offset="0.7" style="stop-color:#98002e;stop-opacity:1"/><stop offset="1" style="stop-color:#cd163f;stop-opacity:1"/></linearGradient><linearGradient id="_Linear2" x1="0" y1="0" x2="1" y2="0" gradientUnits="userSpaceOnUse" gradientTransform="matrix(-382.102,-260.36,260.36,-382.102,660.434,304.543)"><stop offset="0" style="stop-color:#4e131e;stop-opacity:1"/><stop offset="0.02" style="stop-color:#4e131e;stop-opacity:1"/><stop offset="0.7" style="stop-color:#98002e;stop-opacity:1"/><stop offset="1" style="stop-color:#cd163f;stop-opacity:1"/></linearGradient></defs></svg>